<!DOCTYPE svg PUBLIC "-//W3C//DTD SVG 1.1//EN" "http://www.w3.org/Graphics/SVG/1.1/DTD/svg11.dtd">
<!-- Uploaded to: SVG Repo, www.svgrepo.com, Transformed by: SVG Repo Mixer Tools -->
<svg width="64px" height="64px" viewBox="0 0 400 400" fill="none" xmlns="http://www.w3.org/2000/svg">
<g id="SVGRepo_bgCarrier" stroke-width="0"/>
<g id="SVGRepo_tracerCarrier" stroke-linecap="round" stroke-linejoin="round"/>
<g id="SVGRepo_iconCarrier"> <path d="M189.506 253.458C195.017 287.943 198.929 322.472 198.929 357.112" stroke="#153A37" stroke-opacity="0.9" stroke-width="16" stroke-linecap="round" stroke-linejoin="round"/> <path d="M189.5 250C222.946 222.748 265.188 187.29 277.468 144.306" stroke="#153A37" stroke-opacity="0.9" stroke-width="16" stroke-linecap="round" stroke-linejoin="round"/> <path d="M279.027 138.81C279.629 121.434 273.569 104.534 271.174 87.7671" stroke="#153A37" stroke-opacity="0.9" stroke-width="16" stroke-linecap="round" stroke-linejoin="round"/> <path d="M283.736 138.807C294.245 133.351 304.771 126.824 315.931 123.103" stroke="#153A37" stroke-opacity="0.9" stroke-width="16" stroke-linecap="round" stroke-linejoin="round"/> <path d="M189.508 251.1C177.484 236.277 167.913 219.033 160.452 201.63" stroke="#153A37" stroke-opacity="0.9" stroke-width="16" stroke-linecap="round" stroke-linejoin="round"/> <path d="M161.349 201.318C173.199 181.759 185.773 163.556 193.168 141.922" stroke="#153A37" stroke-opacity="0.9" stroke-width="16" stroke-linecap="round" stroke-linejoin="round"/> <path d="M157.104 201.318C118.216 189.811 100.312 163.882 82.8584 133.436" stroke="#153A37" stroke-opacity="0.9" stroke-width="16" stroke-linecap="round" stroke-linejoin="round"/> <path d="M113.336 171.004C128.813 149.598 134.538 122.513 134.538 96.4045" stroke="#153A37" stroke-opacity="0.9" stroke-width="16" stroke-linecap="round" stroke-linejoin="round"/> <path d="M82.8586 134.211C82.8352 126.432 85.175 119.406 87.5699 112.224" stroke="#153A37" stroke-opacity="0.9" stroke-width="16" stroke-linecap="round" stroke-linejoin="round"/> <path d="M290.787 74.8487C289.037 33.2544 348.356 53.3155 298.02 76.1611" stroke="#153A37" stroke-opacity="0.9" stroke-width="16" stroke-linecap="round" stroke-linejoin="round"/> <path d="M257.047 75.9878C230.615 54.883 280.321 13.6556 266.469 75.9878" stroke="#153A37" stroke-opacity="0.9" stroke-width="16" stroke-linecap="round" stroke-linejoin="round"/> <path d="M337.143 111.324C377.509 104.735 368.994 120.747 334.001 120.747" stroke="#153A37" stroke-opacity="0.9" stroke-width="16" stroke-linecap="round" stroke-linejoin="round"/> <path d="M314.36 152.159C344.148 154.8 312.689 172.222 306.507 150.587" stroke="#153A37" stroke-opacity="0.9" stroke-width="16" stroke-linecap="round" stroke-linejoin="round"/> <path d="M253.858 102.09C215.416 87.9541 215.31 137.639 253.858 106.802" stroke="#153A37" stroke-opacity="0.9" stroke-width="16" stroke-linecap="round" stroke-linejoin="round"/> <path d="M296.009 95.579C315.02 80.609 330.226 107.581 292.868 103.432" stroke="#153A37" stroke-opacity="0.9" stroke-width="16" stroke-linecap="round" stroke-linejoin="round"/> <path d="M214.644 142.734C244.7 123.655 259.933 156.433 210.717 148.232" stroke="#153A37" stroke-opacity="0.9" stroke-width="16" stroke-linecap="round" stroke-linejoin="round"/> <path d="M192.652 124.673C196.801 89.5363 213.814 83.4079 195.793 125.458" stroke="#153A37" stroke-opacity="0.9" stroke-width="16" stroke-linecap="round" stroke-linejoin="round"/> <path d="M165.955 136.453C144.846 133.827 145.951 175.395 174.592 139.594" stroke="#153A37" stroke-opacity="0.9" stroke-width="16" stroke-linecap="round" stroke-linejoin="round"/> <path d="M207.853 165.256C230.547 174.446 198.541 194.42 195.289 168.398" stroke="#153A37" stroke-opacity="0.9" stroke-width="16" stroke-linecap="round" stroke-linejoin="round"/> <path d="M154.168 75.2032C192.12 32.2937 188.97 104.776 150.242 85.4109" stroke="#153A37" stroke-opacity="0.9" stroke-width="16" stroke-linecap="round" stroke-linejoin="round"/> <path d="M130.644 81.1492C89.9303 36.5722 83.647 92.1035 130.644 76.4378" stroke="#153A37" stroke-opacity="0.9" stroke-width="16" stroke-linecap="round" stroke-linejoin="round"/> <path d="M115.69 96.4054C87.899 86.8765 100.003 116.806 118.047 98.76" stroke="#153A37" stroke-opacity="0.9" stroke-width="16" stroke-linecap="round" stroke-linejoin="round"/> <path d="M57.5825 140.38C16.5843 167.399 54.7654 174.885 61.509 141.165" stroke="#153A37" stroke-opacity="0.9" stroke-width="16" stroke-linecap="round" stroke-linejoin="round"/> <path d="M57.5949 116.82C12.861 115.789 44.5383 72.8115 68.5874 112.895" stroke="#153A37" stroke-opacity="0.9" stroke-width="16" stroke-linecap="round" stroke-linejoin="round"/> <path d="M142.387 117.607C157.285 87.663 183.239 119.962 144.744 119.962" stroke="#153A37" stroke-opacity="0.9" stroke-width="16" stroke-linecap="round" stroke-linejoin="round"/> </g>
</svg>